<svg xmlns="http://www.w3.org/2000/svg" width="46" height="46" viewBox="0 0 46 46">
    <path fill-rule="nonzero" d="M16 25h-2.5a1.5 1.5 0 0 1 0-3H16v-4H9.25L4 25v5h3.256a4.502 4.502 0 0 1 8.488 0H16v-5zm13.256 8H15.744a4.502 4.502 0 0 1-8.488 0H2.5A1.5 1.5 0 0 1 1 31.5v-7c0-.325.105-.64.3-.9l6-8a1.5 1.5 0 0 1 1.2-.6H16v-3.5a1.5 1.5 0 0 1 1.5-1.5h22a1.5 1.5 0 0 1 0 3H19v17h10.256a4.502 4.502 0 0 1 8.488 0H38v-2.5a1.5 1.5 0 0 1 3 0v4a1.5 1.5 0 0 1-1.5 1.5h-1.756a4.502 4.502 0 0 1-8.488 0zM35.5 17a1.5 1.5 0 0 1 0-3h9a1.5 1.5 0 0 1 0 3h-9zm-4 4a1.5 1.5 0 0 1 0-3h9a1.5 1.5 0 0 1 0 3h-9zm5 4a1.5 1.5 0 0 1 0-3h6a1.5 1.5 0 0 1 0 3h-6zm-25 8a1.5 1.5 0 1 0 0-3 1.5 1.5 0 0 0 0 3zm22 0a1.5 1.5 0 1 0 0-3 1.5 1.5 0 0 0 0 3z"/>
</svg>
