<svg xmlns="http://www.w3.org/2000/svg" width="46" height="46" viewBox="0 0 46 46">
    <g fill="none" fill-rule="evenodd">
        <circle cx="23" cy="23" r="23" fill="#3DA2E2"/>
        <path fill="#FFF" fill-rule="nonzero" d="M35.5 12a1.5 1.5 0 0 1 0 3H19v13h6.5c.172 0 .337.029.49.082A3.998 3.998 0 1 1 32.965 28H35.5a1.5 1.5 0 0 1 0 3h-2.126a4.002 4.002 0 0 1-7.75-.005L25.5 31h-8l-.125-.005A4.002 4.002 0 0 1 9.626 31L7 31a1.5 1.5 0 0 1-1.5-1.5V24c0-.34.116-.671.329-.937l4-5A1.5 1.5 0 0 1 11 17.5h5v-4a1.5 1.5 0 0 1 1.5-1.5h18zM16 20.5h-4.28L8.5 24.526V28h1.535A3.998 3.998 0 0 1 16 26.879L16 20.5zM38.5 24a1.5 1.5 0 0 1 0 3h-4a1.5 1.5 0 0 1 0-3h4zm-2-4a1.5 1.5 0 0 1 0 3h-7a1.5 1.5 0 0 1 0-3h7zm3-4a1.5 1.5 0 0 1 0 3h-8a1.5 1.5 0 0 1 0-3h8zm-26 15a1 1 0 1 0 0-2 1 1 0 0 0 0 2zm16 0a1 1 0 1 0 0-2 1 1 0 0 0 0 2z"/>
    </g>
</svg>
