<svg xmlns="http://www.w3.org/2000/svg" width="46" height="46" viewBox="0 0 46 46">
    <g fill="none" fill-rule="evenodd">
        <circle cx="23" cy="23" r="23" fill="#3DA2E2"/>
        <path fill="#FFF" fill-rule="nonzero" d="M27.7 31.41l-.316 1.37c-.948.398-1.706.7-2.27.908-.565.208-1.222.312-1.97.312-1.148 0-2.042-.298-2.679-.89-.637-.596-.955-1.35-.955-2.264 0-.354.023-.719.07-1.09.05-.371.126-.79.232-1.257l1.185-4.45c.106-.426.196-.83.267-1.212.073-.38.108-.728.108-1.043 0-.568-.11-.965-.332-1.189-.22-.223-.642-.336-1.268-.336-.306 0-.621.052-.942.153-.323.101-.599.199-.83.29l.317-1.372c.777-.336 1.52-.623 2.23-.861.71-.24 1.38-.359 2.015-.359 1.14 0 2.02.292 2.639.877.618.585.927 1.344.927 2.278 0 .194-.02.534-.064 1.021a7.199 7.199 0 0 1-.237 1.342l-1.181 4.432c-.097.356-.184.763-.26 1.221a6.648 6.648 0 0 0-.115 1.036c0 .588.124.99.372 1.204.25.213.68.32 1.292.32.287 0 .613-.054.976-.16.362-.106.626-.2.79-.281zm.3-18.607c0 .772-.274 1.431-.826 1.974a2.725 2.725 0 0 1-1.988.816 2.755 2.755 0 0 1-2-.816 2.66 2.66 0 0 1-.833-1.974c0-.771.278-1.432.834-1.98A2.743 2.743 0 0 1 25.186 10c.775 0 1.438.275 1.988.822.552.55.826 1.21.826 1.98z"/>
    </g>
</svg>
