<svg xmlns="http://www.w3.org/2000/svg" width="28" height="28" viewBox="0 0 28 28">
    <path fill-rule="nonzero" d="M14.024 3c3.263.008 5.882 2.527 5.865 5.64-.016 3.041-2.678 5.506-5.936 5.495-3.224-.01-5.868-2.532-5.849-5.58.018-3.08 2.664-5.563 5.92-5.555zM14 5.845c-1.614-.002-2.903 1.224-2.89 2.751.012 1.507 1.3 2.703 2.905 2.698 1.6-.006 2.873-1.218 2.867-2.73-.005-1.514-1.282-2.718-2.882-2.72zm6.632 10.478c-.722.699-1.59 1.205-2.555 1.558-.911.333-1.91.5-2.9.613.15.153.22.228.314.316 1.342 1.274 2.69 2.54 4.028 3.817.456.436.551.975.3 1.48-.274.554-.888.917-1.491.878-.382-.025-.68-.204-.944-.455-1.013-.962-2.046-1.906-3.038-2.886-.29-.286-.428-.231-.683.016-1.019.99-2.055 1.965-3.096 2.934-.468.436-1.025.515-1.568.266-.577-.264-.943-.82-.915-1.379.02-.377.216-.666.491-.924 1.33-1.251 2.654-2.507 3.979-3.76.088-.084.17-.172.297-.302-1.807-.178-3.437-.598-4.832-1.627-.173-.128-.352-.252-.51-.395-.61-.554-.672-1.188-.19-1.84.415-.56 1.108-.709 1.83-.388.14.062.273.14.4.223 2.6 1.686 6.172 1.732 8.783.076.258-.187.535-.34.855-.417.622-.152 1.204.065 1.538.579.382.588.377 1.16-.093 1.617z"/>
</svg>
