<svg xmlns="http://www.w3.org/2000/svg" width="46" height="46" viewBox="0 0 46 46">
    <g fill="none" fill-rule="evenodd">
        <circle cx="23" cy="23" r="23" fill="#3DA2E2"/>
        <path fill="#FFF" fill-rule="nonzero" d="M29.435 32.177c.543 0 .877-.108 1.013-.244.111-.11.135-.133.424-.41 1.017-.965 1.325-1.399 1.307-1.82-.014-.357-.308-.815-1.04-1.402-1.913-1.54-2.125-1.506-3.434-.178l-.23.231c-.664.665-1.47.667-2.314.368a5.992 5.992 0 0 1-1.244-.64c-.904-.587-1.983-1.513-3.233-2.762-3.384-3.385-4.347-5.478-3.03-6.796l.227-.224c.149-.146.212-.209.287-.285.974-.987.995-1.337-.463-3.15-.588-.732-1.047-1.026-1.395-1.04-.428-.016-.864.293-1.827 1.306a20.47 20.47 0 0 1-.413.428c-.378.377-.377 1.757.328 3.626.892 2.364 2.691 4.992 5.06 7.361 2.37 2.37 4.996 4.168 7.36 5.06 1.01.38 1.912.57 2.617.57zM32.91 26.1c1.308 1.051 2.038 2.191 2.092 3.487.063 1.56-.567 2.448-2.183 3.982-.267.255-.289.276-.376.362-.729.73-1.777 1.07-3.007 1.07-1.076 0-2.306-.26-3.613-.754-2.767-1.043-5.723-3.067-8.36-5.705-2.637-2.637-4.662-5.593-5.706-8.36-1.055-2.798-1.057-5.247.318-6.62.092-.093.164-.167.362-.376 1.528-1.607 2.42-2.238 3.983-2.183 1.295.054 2.435.785 3.486 2.093 2.364 2.94 2.246 4.902.273 6.902l-.131.131c.336.675 1.176 1.737 2.634 3.194 1.122 1.122 2.063 1.93 2.774 2.392.148.096.292.18.42.245 2.169-2.117 3.969-2.324 7.034.14z"/>
    </g>
</svg>
