<svg xmlns="http://www.w3.org/2000/svg" width="46" height="46" viewBox="0 0 46 46">
    <path fill-rule="nonzero" d="M27.93 28.472l-.706.712-.832-.244a3.188 3.188 0 0 1-.17-.055c-.387-.137-.82-.367-1.27-.66-1.053-.684-2.352-1.801-3.863-3.312-2-2.001-3.273-3.586-3.815-4.765a3.817 3.817 0 0 1-.212-.56l-.23-.823.608-.602.09-.088.376-.375c1.797-1.822 1.763-3.126-.49-5.928-1.003-1.249-1.929-1.822-2.842-1.86-1.1-.04-1.756.348-3.429 2.107-.273.288-.367.386-.497.516-.972.971-1.024 3.204.083 6.14 1.207 3.2 3.6 6.701 6.748 9.85s6.648 5.542 9.846 6.748c1.437.542 2.749.818 3.83.818 1.068 0 1.841-.264 2.312-.735.125-.124.155-.153.512-.494 1.77-1.68 2.153-2.329 2.108-3.421-.038-.924-.61-1.85-1.86-2.853-2.981-2.398-4.08-2.365-6.298-.116zm8.12-2.152c1.848 1.486 2.866 3.131 2.943 5.001.088 2.129-.692 3.449-3.008 5.648-.341.325-.361.344-.463.446C34.455 38.484 32.94 39 31.156 39c-1.463 0-3.114-.347-4.858-1.005-3.612-1.362-7.451-3.988-10.876-7.413-3.424-3.425-6.05-7.266-7.413-10.88-1.466-3.89-1.387-7.256.582-9.224.107-.107.187-.19.445-.462 2.192-2.306 3.515-3.087 5.65-3.011 1.867.077 3.513 1.097 4.998 2.945 3.03 3.77 3.194 6.669.543 9.532.523.808 1.504 1.959 2.92 3.374 1.377 1.378 2.534 2.374 3.387 2.928 3.006-2.688 5.682-2.546 9.516.536z"/>
</svg>
