<svg xmlns="http://www.w3.org/2000/svg" width="20" height="20" viewBox="0 0 20 20">
    <g fill="none" fill-rule="evenodd">
        <circle cx="10" cy="10" r="10" fill="#F3F7F9"/>
        <path fill="#C3D0D7" d="M8.755 11.158v-.433c0-.375.08-.702.24-.979.16-.277.453-.572.879-.885.41-.293.68-.53.812-.715.13-.183.196-.388.196-.615 0-.254-.094-.447-.281-.58-.188-.133-.45-.199-.786-.199-.586 0-1.253.191-2.003.574l-.64-1.283a5.582 5.582 0 0 1 2.772-.732c.805 0 1.445.193 1.92.58.474.386.711.902.711 1.546 0 .43-.097.801-.293 1.114-.195.312-.566.664-1.113 1.054-.375.278-.612.489-.712.633-.1.145-.15.334-.15.569v.351H8.756zm-.188 2.004c0-.328.088-.576.264-.744.176-.168.432-.252.768-.252.324 0 .575.086.753.258.177.172.266.418.266.738 0 .309-.09.552-.27.73-.18.177-.43.266-.75.266-.327 0-.581-.087-.761-.26-.18-.174-.27-.42-.27-.736z"/>
    </g>
</svg>
