<svg xmlns="http://www.w3.org/2000/svg" width="46" height="46" viewBox="0 0 46 46">
    <g fill="none" fill-rule="evenodd">
        <circle cx="23" cy="23" r="23" fill="#3DA2E2"/>
        <path fill="#FFF" fill-rule="nonzero" d="M22.5 29a3.5 3.5 0 0 1 3.163 2H32.5a1.5 1.5 0 0 1 0 3l-6.837.001a3.5 3.5 0 0 1-6.326 0L13.5 34a1.5 1.5 0 0 1 0-3h5.837a3.5 3.5 0 0 1 3.163-2zm6-9.5a3.5 3.5 0 0 1 3.163 2h.837a1.5 1.5 0 0 1 0 3l-.837.001a3.5 3.5 0 0 1-6.326 0L13.5 24.5a1.5 1.5 0 0 1 0-3h11.837a3.5 3.5 0 0 1 3.163-2zm-11-9.5a3.5 3.5 0 0 1 3.163 1.999L32.5 12a1.5 1.5 0 0 1 0 3H20.663a3.5 3.5 0 0 1-6.326 0H13.5a1.5 1.5 0 0 1 0-3l.837-.001A3.5 3.5 0 0 1 17.5 10z"/>
    </g>
</svg>
