<svg xmlns="http://www.w3.org/2000/svg" width="46" height="46" viewBox="0 0 46 46">
    <path fill-rule="nonzero" d="M6.5 30.5v3h31l2-1.5-2-1.5h-31zm-1.5-3h33c.325 0 .64.105.9.3l4 3c.8.6.8 1.8 0 2.4l-4 3a1.5 1.5 0 0 1-.9.3H5A1.5 1.5 0 0 1 3.5 35v-6A1.5 1.5 0 0 1 5 27.5zm1.5-15v9h34v-9h-34zM12 30v4H9v-4h3zM42 9.5a1.5 1.5 0 0 1 1.5 1.5v12a1.5 1.5 0 0 1-1.5 1.5H5A1.5 1.5 0 0 1 3.5 23V11A1.5 1.5 0 0 1 5 9.5h37zm-32 2a1.5 1.5 0 0 1 3 0v5a1.5 1.5 0 0 1-3 0v-5zm6 0a1.5 1.5 0 0 1 3 0v2a1.5 1.5 0 0 1-3 0v-2zm6 0a1.5 1.5 0 0 1 3 0v5a1.5 1.5 0 0 1-3 0v-5zm12 0a1.5 1.5 0 0 1 3 0v5a1.5 1.5 0 0 1-3 0v-5zm-6 0a1.5 1.5 0 0 1 3 0v2a1.5 1.5 0 0 1-3 0v-2z"/>
</svg>
