<svg xmlns="http://www.w3.org/2000/svg" viewBox="0 0 28 28">
    <path fill-rule="nonzero" d="M25.873 19.644a1.694 1.694 0 0 0-.082-.16c-.416-.767-1.212-1.708-2.386-2.824l-.025-.025-.013-.013-.012-.013h-.013c-.533-.52-.87-.869-1.012-1.048-.258-.34-.316-.685-.175-1.035.1-.264.475-.821 1.125-1.673.341-.451.612-.813.812-1.086 1.441-1.959 2.066-3.21 1.874-3.756l-.074-.127c-.05-.077-.18-.147-.387-.211-.209-.064-.475-.075-.8-.032l-3.599.025a.457.457 0 0 0-.25.007l-.163.038-.062.032-.05.039a.56.56 0 0 0-.137.134.882.882 0 0 0-.125.223 21.072 21.072 0 0 1-1.337 2.875 27.31 27.31 0 0 1-.85 1.373c-.258.388-.475.673-.65.856a4.57 4.57 0 0 1-.475.44c-.141.112-.25.158-.324.141a8.988 8.988 0 0 1-.213-.05.843.843 0 0 1-.281-.314 1.425 1.425 0 0 1-.144-.498c-.025-.2-.04-.373-.044-.518-.003-.144-.002-.349.007-.613.008-.264.012-.443.012-.536 0-.324.007-.675.019-1.054l.031-.901c.009-.222.013-.456.013-.703 0-.247-.015-.44-.044-.581a2.02 2.02 0 0 0-.131-.409.684.684 0 0 0-.256-.307 1.426 1.426 0 0 0-.419-.172c-.441-.102-1.004-.158-1.687-.166-1.55-.017-2.545.085-2.986.307a1.69 1.69 0 0 0-.475.383c-.15.187-.171.29-.063.306.5.077.854.26 1.062.55l.075.153c.059.11.117.307.175.588.059.28.096.592.113.932.041.622.041 1.154 0 1.597-.042.443-.081.788-.119 1.035a2.107 2.107 0 0 1-.169.6 2.55 2.55 0 0 1-.15.281.217.217 0 0 1-.062.064.918.918 0 0 1-.337.064c-.117 0-.259-.06-.425-.179a3.024 3.024 0 0 1-.519-.492c-.179-.208-.38-.5-.606-.875a15.385 15.385 0 0 1-.7-1.328l-.2-.37a32.156 32.156 0 0 1-.512-1.042 20.306 20.306 0 0 1-.575-1.323.84.84 0 0 0-.3-.408l-.062-.039a.85.85 0 0 0-.2-.108 1.304 1.304 0 0 0-.287-.083L2.8 7.64c-.35 0-.587.081-.712.243l-.05.077A.421.421 0 0 0 2 8.164c0 .094.025.209.075.345.5 1.201 1.043 2.36 1.63 3.475C4.294 13.1 4.804 14 5.237 14.68c.433.681.875 1.324 1.325 1.929.45.604.748.992.893 1.162.146.17.26.298.344.384l.312.306c.2.205.494.45.881.735.388.285.817.566 1.287.843.471.277 1.019.503 1.644.677a5.564 5.564 0 0 0 1.824.211h1.437c.292-.026.512-.12.662-.281l.05-.064a.858.858 0 0 0 .094-.236c.029-.107.044-.224.044-.351a4.301 4.301 0 0 1 .08-.99c.063-.294.134-.516.213-.665a1.632 1.632 0 0 1 .482-.562.806.806 0 0 1 .1-.045c.2-.068.434-.002.705.199.271.2.525.447.763.74.237.295.522.625.856.99.333.367.625.64.874.818l.25.154c.167.102.384.196.65.28.266.086.5.107.7.065l3.199-.051c.316 0 .562-.054.737-.16.175-.107.279-.224.312-.351.034-.128.035-.273.007-.435a1.632 1.632 0 0 0-.088-.338z"/>
</svg>
